<svg id="Layer_1" data-name="Layer 1" xmlns="http://www.w3.org/2000/svg" viewBox="0 0 1988.87 882.06"><defs><style>.cls-1{fill:#e82670;}</style></defs><title>Logo Tipografico Pink</title><path class="cls-1" d="M447.41,447.83q10.26-15.65,10.27-36.19,0-21.48-7.9-37.76a58,58,0,0,0-23.86-25.44q-16-9.17-40.92-9.17H110.37V542.79h59.42V463.47h81.53V418.59H169.79V383.52H279.13V542.79h59.41V483.38h16.75q6.63,0,10.27,2.37t6.16,8.06l21.49,49h61.94l-23.38-53.41a92.14,92.14,0,0,0-5.69-10.9,28.91,28.91,0,0,0-6-6.8A66.67,66.67,0,0,0,447.41,447.83Zm-57.52-16.75q-7.11,6.8-20.06,6.79H338.54V384.78h33.18q25.29,0,25.28,26.86Q397,424.29,389.89,431.08Z"/><path class="cls-1" d="M629.44,346.7q-23.24-10.59-56.73-10.59T516,346.7a72.7,72.7,0,0,0-35.24,33.81q-12,23.24-12,61.15,0,55,26.7,79.64T572.71,546q50.25,0,77.11-24.65t26.86-79.64q0-37.92-12-61.15A72.73,72.73,0,0,0,629.44,346.7Zm-89.75,52.46q10.26-12.48,33-12.48,12.9,0,21.79,4l-64.4,64.4a124.51,124.51,0,0,1-.68-13.43Q529.42,411.65,539.69,399.16Zm66,83.43q-10.28,12.8-33,12.8A57.45,57.45,0,0,1,555.46,493l60.29-60.29c.16,2.84.26,5.81.26,8.93Q616,469.8,605.74,482.59Z"/><polygon class="cls-1" points="874.99 339.27 826.16 339.27 826.16 447.04 749.37 339.27 698.8 339.27 698.8 542.79 758.22 542.79 758.22 435.34 834.69 542.79 885.57 542.79 885.57 383.52 958.57 383.52 958.57 542.79 1017.98 542.79 1017.98 383.52 1075.18 383.52 1075.18 339.27 885.57 339.27 874.99 339.27"/><path class="cls-1" d="M1210.75,465.68q0,16.13-7.27,23.07t-24.33,6.95a114.42,114.42,0,0,1-19-1.58,77.15,77.15,0,0,1-17.07-4.74v49.3a127.1,127.1,0,0,0,23.07,5.53,176.45,176.45,0,0,0,25.29,1.74q38.55,0,58.62-18.8t20.07-52V339.27h-59.42Z"/><path class="cls-1" d="M1451.4,346.7q-23.22-10.59-56.72-10.59T1338,346.7a72.75,72.75,0,0,0-35.24,33.81q-12,23.24-12,61.15,0,55,26.71,79.64T1394.68,546q50.23,0,77.11-24.65t26.86-79.64q0-37.92-12-61.15A72.75,72.75,0,0,0,1451.4,346.7Zm-89.75,52.46q10.27-12.48,33-12.48,11.8,0,20.25,3.37l-63.06,63.06c-.32-3.58-.49-7.39-.49-11.45Q1351.38,411.65,1361.65,399.16Zm66,83.43q-10.28,12.8-33,12.8a55.28,55.28,0,0,1-18.87-2.93l61.77-61.77q.39,5.16.39,11Q1438,469.8,1427.7,482.59Z"/><path class="cls-1" d="M1674.67,439.14A47.3,47.3,0,0,0,1690,422.07q5.84-10.74,5.84-26.55,0-27.16-16.11-41.71t-47.09-14.54H1520.77V542.79h114.4q32.53,0,50.24-15.8t17.7-44.56q0-19-7.74-28.6A48.57,48.57,0,0,0,1674.67,439.14ZM1578,381h37q13,0,18.17,5.05t5.22,14.86q0,19.59-21.81,19.59H1578Zm58.78,115.34q-5.7,5.07-17.7,5.06H1578V459.68h39.82q13.26,0,19,5.05t5.69,14.86Q1642.44,491.28,1636.75,496.33Z"/><path class="cls-1" d="M1873.76,456q-4.74-12.48-17.86-22T1817.82,418q-21.49-5.68-29.86-9.32t-8.38-11.53q0-9.18,9.8-11.38a108.89,108.89,0,0,1,23.7-2.21,140.7,140.7,0,0,1,25.6,2.52,149.3,149.3,0,0,1,28.44,8.54v-49.3a208.11,208.11,0,0,0-28.91-6.32,219.59,219.59,0,0,0-34.61-2.85q-42,0-63.36,15.65t-21.33,45.66q0,16.44,5.21,27.81t17.23,19.28q12,7.9,32.55,14.54,15.48,4.72,25.12,7.9t14.22,6.95a12.82,12.82,0,0,1,4.58,10.43q0,9.48-8,12.16t-23.86,2.69a141.9,141.9,0,0,1-32.56-4.11,164.08,164.08,0,0,1-31.6-10.74v49q13,6,31.29,9.32a217.3,217.3,0,0,0,38.87,3.32q43.6,0,65.1-16.91t21.49-44.71A79.28,79.28,0,0,0,1873.76,456Z"/></svg>