<svg id="Layer_1" data-name="Layer 1" xmlns="http://www.w3.org/2000/svg" xmlns:xlink="http://www.w3.org/1999/xlink" viewBox="0 0 338.72 186.36"><defs><style>.cls-1{fill:url(#linear-gradient);}.cls-2{fill:#0b2244;}</style><linearGradient id="linear-gradient" x1="76" y1="152.49" x2="78.53" y2="23.23" gradientUnits="userSpaceOnUse"><stop offset="0" stop-color="#00d4be"/><stop offset="0.13" stop-color="#00d0c4"/><stop offset="0.51" stop-color="#01c8d1"/><stop offset="0.88" stop-color="#01c5d5"/></linearGradient></defs><title>Just_PYJobs</title><path class="cls-1" d="M78.55,27.63H30.69V150.37H47.57a16.83,16.83,0,0,0,9.78-3.12,12.27,12.27,0,0,0,5.07-10h0V111l-.06-.06,0,0L36.47,85.08l9.36-9.39a13.24,13.24,0,0,1,18.72,0L76.71,87.86,98.28,66.29,107,75a14.2,14.2,0,0,1,0,20.06L88.69,113.39V120a46.73,46.73,0,0,0,36.58-45.6h0A46.72,46.72,0,0,0,78.55,27.63Z"/><path class="cls-2" d="M169.83,88.46a11.08,11.08,0,0,1-3.09,3.93,13.52,13.52,0,0,1-4.59,2.37,19.35,19.35,0,0,1-5.63.79h-6v10.71H142.7V70.56h14.58a17.34,17.34,0,0,1,5.74.89A12.21,12.21,0,0,1,167.3,74a10.85,10.85,0,0,1,2.7,3.9,12.94,12.94,0,0,1,.95,5V83A12.6,12.6,0,0,1,169.83,88.46ZM163,83.06a4.87,4.87,0,0,0-1.71-4,7.19,7.19,0,0,0-4.66-1.38h-6.07V88.56h6.22A6.38,6.38,0,0,0,161.36,87,5.1,5.1,0,0,0,163,83.16Z"/><path class="cls-2" d="M189.41,106.92a20.87,20.87,0,0,1-1.63,3.55,9.94,9.94,0,0,1-1.91,2.37,6.58,6.58,0,0,1-2.38,1.33,10.45,10.45,0,0,1-3.06.41,12.67,12.67,0,0,1-3.77-.52,14.63,14.63,0,0,1-3.11-1.37l2.6-5.61a8.68,8.68,0,0,0,1.66.76,4.94,4.94,0,0,0,1.66.31,2.93,2.93,0,0,0,1.6-.38,3.58,3.58,0,0,0,1.1-1.41L171.46,78.93h8.21l6.22,18.61,6-18.61h8.06Z"/><path class="cls-2" d="M223.12,99.58a10.91,10.91,0,0,1-2.57,4,10.41,10.41,0,0,1-4,2.4,15.94,15.94,0,0,1-5.15.79,14.14,14.14,0,0,1-7-1.58,16.49,16.49,0,0,1-4.67-3.77l4.95-5.51a14.45,14.45,0,0,0,3.08,2.63,6.53,6.53,0,0,0,3.45.94,4.54,4.54,0,0,0,3.52-1.4A6.62,6.62,0,0,0,216,93.56v-23H224V93.92A15.84,15.84,0,0,1,223.12,99.58Z"/><path class="cls-2" d="M256.32,98.18a14,14,0,0,1-3.11,4.51,14.87,14.87,0,0,1-4.69,3.06,15.26,15.26,0,0,1-5.92,1.12,15.43,15.43,0,0,1-5.86-1.09,14.44,14.44,0,0,1-4.67-3A13.88,13.88,0,0,1,229,98.28a13.68,13.68,0,0,1-1.13-5.53v-.11A13.68,13.68,0,0,1,229,87.11a13.84,13.84,0,0,1,3.11-4.51,14.76,14.76,0,0,1,4.69-3.06,15.21,15.21,0,0,1,5.91-1.12,15.48,15.48,0,0,1,5.87,1.09,14.44,14.44,0,0,1,4.67,3A14.2,14.2,0,0,1,256.32,87a13.67,13.67,0,0,1,1.12,5.53v.1A13.68,13.68,0,0,1,256.32,98.18Zm-6.53-5.54a8.12,8.12,0,0,0-.51-2.88,7.29,7.29,0,0,0-3.77-4.05,6.84,6.84,0,0,0-2.91-.61,7.2,7.2,0,0,0-3,.58,6.54,6.54,0,0,0-2.22,1.61,7.05,7.05,0,0,0-1.4,2.37,8.3,8.3,0,0,0-.49,2.88v.1a8.1,8.1,0,0,0,.51,2.89,7.27,7.27,0,0,0,1.48,2.39,7.43,7.43,0,0,0,2.27,1.66,6.8,6.8,0,0,0,2.93.61,7.22,7.22,0,0,0,3-.58A6.64,6.64,0,0,0,247.91,98a7.05,7.05,0,0,0,1.4-2.37,8.53,8.53,0,0,0,.48-2.88Z"/><path class="cls-2" d="M288.68,98.69a13.92,13.92,0,0,1-2.75,4.44,11.28,11.28,0,0,1-4,2.72,12.1,12.1,0,0,1-4.69.92,9.78,9.78,0,0,1-5.12-1.21,13.63,13.63,0,0,1-3.4-2.84v3.54H261V69h7.75V82.82a12.22,12.22,0,0,1,3.45-3.16,9.48,9.48,0,0,1,5.07-1.24,12.14,12.14,0,0,1,4.64.91,11.7,11.7,0,0,1,4,2.73,13.64,13.64,0,0,1,2.78,4.44,16.2,16.2,0,0,1,1.05,6v.1A16.21,16.21,0,0,1,288.68,98.69ZM282,92.54a8.59,8.59,0,0,0-.53-3.1A7.57,7.57,0,0,0,280,87a6.63,6.63,0,0,0-2.12-1.54A6.24,6.24,0,0,0,270.63,87a7.71,7.71,0,0,0-1.43,2.42,8.59,8.59,0,0,0-.54,3.1v.1a8.64,8.64,0,0,0,.54,3.11,7.71,7.71,0,0,0,1.43,2.42,6.21,6.21,0,0,0,2.09,1.54,6.52,6.52,0,0,0,5.15,0A6.63,6.63,0,0,0,280,98.17a7.65,7.65,0,0,0,1.45-2.39,8.62,8.62,0,0,0,.53-3.14Z"/><path class="cls-2" d="M312.65,101.9a7.25,7.25,0,0,1-2.22,2.73,10.07,10.07,0,0,1-3.34,1.61,15.4,15.4,0,0,1-4.1.53,19,19,0,0,1-11.73-4.13l3.31-5.1A18.33,18.33,0,0,0,299,100a12.19,12.19,0,0,0,4.16.81,4.25,4.25,0,0,0,2.47-.56,1.71,1.71,0,0,0,.79-1.48v-.1a1.47,1.47,0,0,0-.46-1.07,3.84,3.84,0,0,0-1.25-.79c-.52-.22-1.13-.43-1.81-.64l-2.14-.66a28.91,28.91,0,0,1-2.88-1A10.41,10.41,0,0,1,295.28,93a7.57,7.57,0,0,1-1.91-2.32,7.08,7.08,0,0,1-.74-3.37v-.1a8.36,8.36,0,0,1,.79-3.7,8.2,8.2,0,0,1,2.15-2.73,9,9,0,0,1,3.16-1.68,13.18,13.18,0,0,1,3.9-.56,17.62,17.62,0,0,1,5.28.84,19.5,19.5,0,0,1,4.92,2.32l-3,5.35a24.74,24.74,0,0,0-4-1.86,10.32,10.32,0,0,0-3.41-.68,3.55,3.55,0,0,0-2.15.53,1.64,1.64,0,0,0-.71,1.35v.1a1.32,1.32,0,0,0,.46,1,4.78,4.78,0,0,0,1.22.81,14.14,14.14,0,0,0,1.76.74c.67.24,1.37.48,2.12.72.95.3,1.92.67,2.91,1.09a12.58,12.58,0,0,1,2.65,1.56,7.76,7.76,0,0,1,1.94,2.24,6.37,6.37,0,0,1,.76,3.22V98A9,9,0,0,1,312.65,101.9Z"/></svg>